<svg id="susenka" xmlns="http://www.w3.org/2000/svg" viewBox="0 0 460.08 466.49"><defs><style>.cls-1{fill:#ff9b33;stroke-width:20px;}.cls-1,.cls-3,.cls-5{stroke:#1d1d1b;stroke-miterlimit:10;}.cls-2{fill:#1d1d1b;opacity:0.3;}.cls-3{fill:#7d4e24;stroke-width:9px;}.cls-4{fill:#fff;opacity:0.2;}.cls-5{fill:none;stroke-width:15px;}</style></defs><path class="cls-1" d="M1110.83,528.21c0,26.28,9.75,68.09,1.62,91.61-11.26,32.55-38.24,42.53-61.88,66.57-21.61,22-32.66,41.86-61.63,53.74-26.84,11-63.05,4.17-93.85,4.17-54.27,0-90.79-37.24-130.07-68.73-37-29.68-73.15-27-86.19-74-5.44-19.58-2.35-71-2.35-92.34,0-38.11,8.21-58.15,24.65-89.78C714.88,393,742.51,387.3,765,368.13c40.05-34.12,57.81-68.22,114.55-68.22,37,0,78.42,24.36,109.37,39.92,34.35,17.26,77.57,26.13,99.38,57.46C1114.15,434.41,1110.83,479.55,1110.83,528.21Z" transform="translate(-665.6 -289.91)"/><path class="cls-2" d="M1088.32,397.29c-21.81-31.33-65-40.2-99.38-57.46-31-15.56-72.37-39.92-109.37-39.92-1.93,0-3.81,0-5.65.12,35.17,27.15,100.51,68.87,124.21,76.19,33.65,10.39,75.13,23.48,80.61,95.48s16.91,112.9-10.17,148.12-37,39.09-79.63,78.83c-27.49,25.63-126.64,21-165.93,22.17,21.21,13.73,44.32,23.48,72.08,23.48,30.8,0,67,6.84,93.85-4.17,29-11.88,40-31.76,61.63-53.74,23.64-24,50.62-34,61.88-66.57,8.13-23.52-1.62-65.33-1.62-91.61C1110.83,479.55,1114.15,434.41,1088.32,397.29Z" transform="translate(-665.6 -289.91)"/><path class="cls-3" d="M773.13,450.51c0,3.81,2.85,8.05,0,11-2.62,2.72-9.11,5.07-13.38,6.56-3.72,1.29-7.93-.88-12.39-.88-7.18,0-14.15,2.12-19-1-5.4-3.43-11.35-9-11.35-14.48,0-2.41,1.78-5.9,3-8,2.67-4.68,8.3-5.85,15-7.83,3.32-1,7.5-5.28,11.35-5.28,4.78,0,8.21,2.05,12.12,3.53s11.83,1.9,14.29,4.49C775.53,441.57,773.13,446.74,773.13,450.51Z" transform="translate(-665.6 -289.91)"/><path class="cls-3" d="M1114.23,510.23c0,3.81,2.85,8,0,11-2.61,2.72-9.11,5.07-13.38,6.55-3.72,1.3-7.93-.88-12.38-.88-7.19,0-14.16,2.13-19-1-5.4-3.44-11.35-9-11.35-14.48,0-2.42,1.79-5.91,3-8,2.67-4.68,8.3-5.85,15-7.83,3.32-1,7.51-5.28,11.35-5.28,4.78,0,8.21,2.05,12.13,3.53s11.82,1.89,14.28,4.49C1116.63,501.29,1114.23,506.46,1114.23,510.23Z" transform="translate(-665.6 -289.91)"/><path class="cls-3" d="M868.22,396.3c0,7.36-2.2,13.6-7.83,17.48-3.47,2.39-10.86-1-15.39-1-4,0-8.8-.07-12-2-3.83-2.26-5.21-6.08-7-10.17-1.21-2.69-4.18-5.22-4.18-8.35,0-9.13,4.24-20.87,12.26-24,2.43-.94,8.59,3.39,11.35,3.39,4.46,0,10.39.42,13.83,2.74,2.76,1.87,1.61,5.3,3.26,8.22C864.24,385.73,868.22,392.46,868.22,396.3Z" transform="translate(-665.6 -289.91)"/><path class="cls-3" d="M851.79,490.33c0,2.61-1.8,6-2.58,8.19-.71,2-.14,3.92-1.33,5.28-1.83,2.1-5.72.39-8.23.39-3,0-7.24,2.22-9.18-.58s-1.57-8-1.57-12.33c0-3.7,2.25-5.34,3.72-8,2-3.58,1.3-7.63,4.7-7.63,2.75,0,7.61,1.5,9.51,4C849,482.47,851.79,485.68,851.79,490.33Z" transform="translate(-665.6 -289.91)"/><path class="cls-3" d="M1038.83,561.2c0,2.61-1.81,6-2.59,8.19-.71,2-.14,3.92-1.33,5.28-1.83,2.1-5.72.39-8.23.39-3,0-7.23,2.22-9.18-.58s-1.57-8-1.57-12.33c0-3.7,2.25-5.34,3.72-8,2-3.58,1.3-7.63,4.7-7.63,2.75,0,7.61,1.5,9.51,4C1036.07,553.34,1038.83,556.55,1038.83,561.2Z" transform="translate(-665.6 -289.91)"/><path class="cls-3" d="M927.15,449.07c2.33-3,2.67-8.11,6.73-8.71,3.74-.56,10.31,1.56,14.6,3,3.73,1.25,5.73,5.54,9.26,8.27,5.69,4.39,12.5,7,14.47,12.41,2.18,6,3.46,14.09.13,18.4-1.47,1.91-5,3.58-7.27,4.51-5,2.08-10.14-.44-16.66-3-3.22-1.25-9.17-.4-12.21-2.75-3.78-2.92-5.25-6.65-7.44-10.21s-8.2-8.73-8.56-12.29C919.79,454.68,924.85,452.05,927.15,449.07Z" transform="translate(-665.6 -289.91)"/><path class="cls-3" d="M971.53,357.33c1.72,2,2.61,5.73,3.46,7.87.76,1.95,2.48,3,2.48,4.85,0,2.79-4,4.06-5.93,5.72-2.23,2-4,6.44-7.29,5.61s-6.44-5-9.3-8.24c-2.44-2.78-1.84-5.49-2.5-8.48-.88-4-4.05-6.59-1.5-8.83,2.07-1.82,6.71-3.89,9.77-3.29C964.27,353.24,968.47,353.84,971.53,357.33Z" transform="translate(-665.6 -289.91)"/><path class="cls-3" d="M893.47,568.91c-1.62-7.18-.86-13.75,3.77-18.78,2.86-3.1,10.83-1.38,15.25-2.38,3.88-.88,8.59-1.88,12.13-.74,4.24,1.35,6.43,4.78,9.12,8.36,1.76,2.35,5.22,4.17,5.91,7.22,2,8.91.48,21.29-6.65,26.12-2.16,1.45-9.13-1.41-11.82-.8-4.35,1-10.23,1.88-14.09.38-3.11-1.21-2.74-4.81-5-7.3C899.69,578.34,894.32,572.65,893.47,568.91Z" transform="translate(-665.6 -289.91)"/><path class="cls-3" d="M748.47,594.48c-3.78.48-7.63,3.83-10.92,1.37-3-2.25-6.16-8.41-8.17-12.46-1.75-3.53-.11-8-.67-12.4-.89-7.13-3.87-13.77-1.39-19,2.73-5.78,7.55-12.38,12.95-13.06,2.4-.3,6.08,1,8.33,2,5,2.07,6.84,7.51,9.64,13.92,1.38,3.17,6.17,6.79,6.65,10.6.59,4.75-1,8.41-2,12.48s-.41,12-2.68,14.73C757.64,595.75,752.21,594,748.47,594.48Z" transform="translate(-665.6 -289.91)"/><path class="cls-3" d="M826.82,645c-1.91-2.14-3.06-6.15-4.06-8.44-.91-2.09-2.76-3.31-2.87-5.22-.17-2.94,4-4.12,5.87-5.8,2.2-2,3.77-6.63,7.28-5.62s7,5.51,10.18,9.08c2.7,3,2.23,5.87,3.08,9.05,1.15,4.25,4.61,7.13,2.07,9.39-2,1.83-6.78,3.82-10,3.06C834.62,649.66,830.21,648.85,826.82,645Z" transform="translate(-665.6 -289.91)"/><path class="cls-3" d="M927.93,689.53c3.8-.2,7.88-3.26,11-.57,2.85,2.47,5.53,8.84,7.24,13,1.48,3.65-.47,8-.24,12.42.37,7.18,2.85,14,0,19.06-3.14,5.57-8.43,11.8-13.87,12.08-2.41.13-6-1.47-8.16-2.57-4.81-2.42-6.27-8-8.6-14.58-1.14-3.27-5.66-7.23-5.86-11.06-.24-4.78,1.63-8.31,2.9-12.3s1.28-11.9,3.75-14.49C918.87,687.6,924.16,689.73,927.93,689.53Z" transform="translate(-665.6 -289.91)"/><path class="cls-3" d="M1019.2,650.31c0,1.64,2.88,4.65,2.41,6.13-1.22,3.81-7,5-10.5,6.91-2.19,1.2-3.13,4.31-5.81,4.31a17.3,17.3,0,0,1-5.53-1.44c-3.7-1.35-4.24-6.56-6-10-1.06-2.09-4.83-3.63-4.83-6.13,0-5,.93-12.88,4.57-15.7,2.61-2,10.39,1.87,14,1.87s8.37-1.84,11,.13c1.85,1.41,1.91,4.69,3,6.79S1019.2,647.8,1019.2,650.31Z" transform="translate(-665.6 -289.91)"/><path class="cls-3" d="M1078,406.2c1.62.24,5-2.16,6.42-1.47,3.59,1.77,3.93,7.7,5.29,11.4.85,2.35,3.79,3.74,3.39,6.39a17.19,17.19,0,0,1-2.24,5.26c-1.88,3.46-7.11,3.22-10.82,4.44-2.22.74-4.3,4.24-6.78,3.87-4.9-.74-12.59-2.82-14.85-6.84-1.62-2.89,3.4-10,3.92-13.52s-.58-8.55,1.75-10.82c1.67-1.63,4.92-1.2,7.15-1.94S1075.51,405.83,1078,406.2Z" transform="translate(-665.6 -289.91)"/><path class="cls-4" d="M827.83,390.07c-.12,1.52.18,3.46,1.65,3.87,1.17.32,2.29-.57,3.18-1.4l3.75-3.52a14.12,14.12,0,0,1,4.56-3.25c2.29-.85,4.83-.45,7.27-.66s5.16-1.42,5.66-3.81a1.38,1.38,0,0,0,0-.78,1.43,1.43,0,0,0-.57-.6c-1.8-1.19-4.13-1-6.26-1.21a26.53,26.53,0,0,1-5.62-1.56l-5.33-1.92a4.21,4.21,0,0,0-1.89-.51c-.63.12-1,.85-1.35,1.33a28,28,0,0,0-4.1,8.64A27.18,27.18,0,0,0,827.83,390.07Z" transform="translate(-665.6 -289.91)"/><path class="cls-4" d="M961.81,358.42a6.38,6.38,0,0,1,4.53,2.62,2.49,2.49,0,0,1,.21,2.7,2.52,2.52,0,0,1-2,.91,6.66,6.66,0,0,1-4.63-1.92,13.14,13.14,0,0,1-1.67-1.9c-.31-.42-1.21-1.34-1.1-1.92C957.34,357.94,961,358.31,961.81,358.42Z" transform="translate(-665.6 -289.91)"/><path class="cls-4" d="M724.21,449.25a8.82,8.82,0,0,1,2.76-2.57,27.85,27.85,0,0,1,4-2.16c2.85-1.25,5.9-2,8.77-3.21,3.06-1.3,6.18-3.17,9.46-2.63a3.48,3.48,0,0,1,3,2.22,3,3,0,0,1-.94,2.76,8.54,8.54,0,0,1-2.58,1.58,119.69,119.69,0,0,1-12.52,4.88c-2.25.74-4.63,1.48-6.29,3.18a12.75,12.75,0,0,1-2,2,2,2,0,0,1-2.58-.17,17,17,0,0,1-.72-1.56c-.2-.35-.54-.6-.73-1A3.56,3.56,0,0,1,724.21,449.25Z" transform="translate(-665.6 -289.91)"/><path class="cls-4" d="M928.63,455.88c-1,.83-2.08,1.81-2,3.08a2.31,2.31,0,0,0,1.06,1.64,4.33,4.33,0,0,0,4.48-.19,19.37,19.37,0,0,0,3.53-3.13,26.06,26.06,0,0,1,7.3-5,6.63,6.63,0,0,0,2.06-1.24,2,2,0,0,0,.53-2.21c-.21-.4-1.59-.63-2-.72a17.14,17.14,0,0,0-2.15-.32,18,18,0,0,1-4.33-.69c-.51-.18-1.17-.67-1.73-.58s-.8.94-1,1.48a22.47,22.47,0,0,1-5.77,7.91Z" transform="translate(-665.6 -289.91)"/><path class="cls-4" d="M834.27,492.35a5.92,5.92,0,0,0,4.58-1.54,17.36,17.36,0,0,0,3.09-3.88,5.22,5.22,0,0,0,.95-2c.3-1.93-2.66-4.31-4-2.32-.64.92-.91,2.11-1.5,3.08s-1.34,2-1.93,3A7.29,7.29,0,0,0,834.27,492.35Z" transform="translate(-665.6 -289.91)"/><path class="cls-4" d="M731.54,555.6a6.89,6.89,0,0,0-.64,2.7c.05,2.36,2.15,4.28,2.22,6.63a5,5,0,0,0,.2,2.2,2,2,0,0,0,2.35.8,4.6,4.6,0,0,0,2.1-1.63c2.57-3.16,3.62-7.31,5.93-10.66,1-1.52,2.37-2.91,2.94-4.67a7.47,7.47,0,0,0,.3-2.82,1.58,1.58,0,0,0-.17-.74,1.74,1.74,0,0,0-.66-.63,15,15,0,0,0-3.93-1.85c-.64-.19-1.22-.46-1.81-.16a9.58,9.58,0,0,0-1.59,1.17,24.43,24.43,0,0,0-7.24,9.66Z" transform="translate(-665.6 -289.91)"/><path class="cls-4" d="M897.91,563.2c-.13,1.18-.17,2.58.76,3.33,1.1.9,2.77.23,3.93-.61,3.11-2.25,5.61-5.57,9.28-6.71,2.2-.68,4.85-.6,6.39-2.31a2,2,0,0,0,.57-1.12,1.9,1.9,0,0,0-1.18-1.76,5.72,5.72,0,0,0-2.22-.35l-11.31-.21c-1.13,0-2.41-.23-3.26.68a9.94,9.94,0,0,0-2,3.74A26.65,26.65,0,0,0,897.91,563.2Z" transform="translate(-665.6 -289.91)"/><path class="cls-4" d="M832.76,626.16l-5,5.41a2.24,2.24,0,0,0-.6.87c-.3,1,.89,1.91,1.91,1.78a4.7,4.7,0,0,0,2.56-1.65l2.25-2.29a2.72,2.72,0,0,0,1-1.75c0-1-1-1.63-1.87-2.08" transform="translate(-665.6 -289.91)"/><path class="cls-4" d="M917.29,708.45a4.32,4.32,0,0,0-.29,2.73,3,3,0,0,0,2.93,1.68c2.83-.06,5-2.56,6.3-5.08s2.25-5.35,4.39-7.21a15.24,15.24,0,0,0,2.46-2.13,2.27,2.27,0,0,0,0-3,2.63,2.63,0,0,0-1-.49,14,14,0,0,0-5.25-.05l-4.22.5c-.7.08-1.51.07-1.92.74-.6,1-.64,2.54-.91,3.64-.33,1.39-.7,2.78-1.09,4.16-.21.75-.44,1.5-.67,2.25A9.64,9.64,0,0,0,917.29,708.45Z" transform="translate(-665.6 -289.91)"/><path class="cls-4" d="M994.78,648.21a5.27,5.27,0,0,0,4.16-.67c1.27-.7,2.4-1.64,3.7-2.28a11.57,11.57,0,0,1,4.09-1.07,1.15,1.15,0,0,0,.9-.36c.38-.57-.45-1.16-1.11-1.35a77.56,77.56,0,0,0-8.12-2.24c-2.28-.36-2.91,1.63-3.32,3.51a13.81,13.81,0,0,0-.32,2.22C994.74,646.2,994.58,648.14,994.78,648.21Z" transform="translate(-665.6 -289.91)"/><path class="cls-4" d="M1021.3,562.05a2.48,2.48,0,0,0,1,2.64,2.42,2.42,0,0,0,1.85,0c2.73-1,4.11-3.93,5.18-6.62.5-1.25.92-2.56.2-3.81a2.12,2.12,0,0,0-2.58-1.19c-1,.44-1.43,1.66-2,2.54s-1.42,1.92-2.09,2.91A8.36,8.36,0,0,0,1021.3,562.05Z" transform="translate(-665.6 -289.91)"/><path class="cls-4" d="M1063.72,510.17a4.35,4.35,0,0,0-.42,1.8,3.51,3.51,0,0,0,2.89,3,10.26,10.26,0,0,0,4.43-.31c2.45-.53,5.11-1.2,6.62-3.2a10.78,10.78,0,0,0,1.64-4.92l.53-3.43a1,1,0,0,0,0-.59,1.12,1.12,0,0,0-.57-.52,7.11,7.11,0,0,0-1.92-1,5.37,5.37,0,0,0-1.59.15,14.49,14.49,0,0,0-3.58,1,15.58,15.58,0,0,0-5.91,4.47A14.62,14.62,0,0,0,1063.72,510.17Z" transform="translate(-665.6 -289.91)"/><path class="cls-4" d="M1065.54,423c-.7,1.27-1.52,2.74-.94,4.06a3.13,3.13,0,0,0,2.83,1.66,3.24,3.24,0,0,0,2.53-2.53c.37-1.22.38-2.53.83-3.72.63-1.67,2-2.9,3.23-4.21s2.29-3,2.07-4.74a4.89,4.89,0,0,0-3.11-3.66,11.37,11.37,0,0,0-4.92-.81c-.18,1.72.68,3.39.38,5.13a30.56,30.56,0,0,1-1.46,5.66A26.43,26.43,0,0,1,1065.54,423Z" transform="translate(-665.6 -289.91)"/><path class="cls-5" d="M1110.83,528.21c0,26.28,9.75,68.09,1.62,91.61-11.26,32.55-38.24,42.53-61.88,66.57-21.61,22-32.66,41.86-61.63,53.74-26.84,11-63.05,4.17-93.85,4.17-54.27,0-90.79-37.24-130.07-68.73-37-29.68-73.15-27-86.19-74-5.44-19.58-2.35-71-2.35-92.34,0-38.11,8.21-58.15,24.65-89.78C714.88,393,742.51,387.3,765,368.13c40.05-34.12,57.81-68.22,114.55-68.22,37,0,78.42,24.36,109.37,39.92,34.35,17.26,77.57,26.13,99.38,57.46C1114.15,434.41,1110.83,479.55,1110.83,528.21Z" transform="translate(-665.6 -289.91)"/></svg>